<svg xmlns="http://www.w3.org/2000/svg" xml:space="preserve" width="1500" height="93" viewBox="0 0 1500 93" data-version="1" data-id="lg_8BKezSynSpDD3ZF8al"><g id="outer-wrapper" data-padding="20" transform="matrix(1,0,0,1,0,0)"><g id="inner-wrapper" transform="matrix(0.9642857142857143,0,0,0.9642857142857143,10,1.6607142857142847)"><rect width="343.277" height="92.66" x="195.2679074074074" y="-400.33" fill="none" rx="0" ry="0" transform="translate(292.14 400.5)"></rect><path fill="#001f3f" d="M507.27590740740743 72.57999999999998Q501.8659074074074 72.57999999999998 497.51590740740744 70.69Q493.1759074074074 68.80000000000001 490.3059074074074 65.11000000000001L496.0459074074074 60.19Q498.50590740740745 63.06 501.4159074074074 64.33999999999997Q504.3259074074074 65.60999999999996 508.01590740740744 65.60999999999996Q509.4859074074074 65.60999999999996 510.76590740740744 65.23999999999995Q512.0359074074074 64.86999999999995 512.9759074074075 64.12999999999994T514.4059074074074 62.36999999999995Q514.9059074074074 61.339999999999975 514.9059074074074 60.10999999999996Q514.9059074074074 57.97999999999996 513.3459074074074 56.66999999999996Q512.5259074074074 56.089999999999975 510.76590740740744 55.39999999999998Q508.9959074074074 54.69999999999999 506.2059074074074 53.95999999999998Q501.4559074074074 52.72999999999996 498.4159074074074 51.16999999999996Q495.38590740740744 49.61999999999995 493.7459074074074 47.64999999999998Q492.51590740740744 46.089999999999975 491.9459074074074 44.25Q491.3659074074074 42.39999999999998 491.3659074074074 40.19Q491.3659074074074 36.579999999999984 493.4159074074074 33.79000000000002T498.9559074074074 29.400000000000034Q502.4359074074074 27.80000000000001 506.7859074074074 27.80000000000001Q509.8159074074074 27.80000000000001 512.8159074074074 28.620000000000005Q515.8059074074074 29.439999999999998 518.3459074074074 31T522.6059074074074 34.69L517.7759074074074 40.01999999999998Q516.2159074074074 38.45999999999998 514.3659074074073 37.27999999999997Q512.5259074074074 36.089999999999975 510.63590740740744 35.42999999999995Q508.75590740740745 34.769999999999925 507.1959074074074 34.769999999999925Q505.4759074074074 34.769999999999925 504.0759074074074 35.09999999999991Q502.6859074074074 35.42999999999989 501.7459074074074 36.08999999999992Q500.7959074074074 36.739999999999895 500.3059074074074 37.729999999999905Q499.8159074074074 38.70999999999992 499.8159074074074 39.939999999999884Q499.89590740740744 41.00999999999988 500.34590740740737 41.949999999999875T501.6159074074074 43.5499999999999Q502.51590740740744 44.199999999999875 504.3259074074074 44.939999999999884Q506.12590740740745 45.67999999999989 508.9159074074074 46.33999999999986Q513.0159074074074 47.399999999999864 515.6859074074074 48.669999999999845Q518.3459074074074 49.93999999999983 519.9059074074074 51.57999999999987Q521.5459074074074 53.13999999999987 522.1959074074074 55.189999999999884Q522.8559074074074 57.239999999999895 522.8559074074074 59.77999999999986Q522.8559074074074 63.46999999999986 520.7659074074074 66.38999999999987Q518.6759074074074 69.2999999999999 515.1459074074074 70.93999999999988Q511.6259074074074 72.57999999999987 507.27590740740743 72.57999999999987M529.7359074074075 71.75999999999988V11.07999999999987H538.1759074074074V37.55999999999989L536.7059074074074 38.5499999999999Q537.5259074074074 35.67999999999989 539.9059074074074 33.25999999999988Q542.2759074074074 30.83999999999986 545.5559074074074 29.31999999999988T552.2859074074074 27.799999999999898Q557.2059074074074 27.799999999999898 560.4859074074074 29.729999999999905T565.4059074074073 35.58999999999992Q567.0459074074074 39.529999999999916 567.0459074074074 45.519999999999925V71.75999999999993H558.5959074074074V46.08999999999992Q558.5959074074074 42.39999999999992 557.6159074074073 39.979999999999905Q556.6259074074073 37.55999999999989 554.5759074074074 36.45999999999992Q552.5259074074074 35.34999999999991 549.4959074074073 35.509999999999934Q547.0359074074074 35.509999999999934 544.9859074074074 36.28999999999991T541.4159074074074 38.45999999999992Q539.9059074074074 39.8599999999999 539.0459074074074 41.69999999999993Q538.1759074074074 43.549999999999955 538.1759074074074 45.67999999999995V71.75999999999993ZM595.4159074074074 72.57999999999987Q589.1059074074074 72.57999999999987 584.1459074074074 69.66999999999985Q579.1759074074074 66.74999999999983 576.3059074074074 61.709999999999866T573.4359074074074 50.189999999999884T576.3059074074074 38.6699999999999T584.1459074074074 30.719999999999914Q589.1059074074074 27.799999999999898 595.4159074074074 27.799999999999898Q601.6459074074074 27.799999999999898 606.6059074074074 30.719999999999914Q611.5659074074074 33.62999999999994 614.4359074074074 38.6699999999999T617.3059074074074 50.189999999999884T614.4359074074074 61.709999999999866T606.6059074074074 69.66999999999985Q601.6459074074074 72.57999999999987 595.4159074074074 72.57999999999987M595.4159074074074 64.86999999999989Q599.2659074074074 64.86999999999989 602.3059074074074 62.939999999999884Q605.3359074074074 61.00999999999988 607.0559074074074 57.689999999999884Q608.7859074074074 54.36999999999989 608.6959074074074 50.189999999999884Q608.7859074074074 45.92999999999989 607.0559074074074 42.6099999999999Q605.3359074074074 39.279999999999916 602.3059074074074 37.39999999999992Q599.2659074074074 35.509999999999934 595.4159074074074 35.509999999999934T588.4859074074075 37.43999999999994Q585.4159074074074 39.36999999999995 583.6859074074074 42.68999999999994Q581.9659074074074 46.009999999999934 582.0459074074074 50.18999999999994Q581.9659074074074 54.36999999999995 583.6859074074074 57.68999999999994Q585.4159074074074 61.009999999999934 588.4859074074075 62.93999999999994Q591.5659074074074 64.86999999999995 595.4159074074074 64.86999999999995M632.5659074074074 89.80999999999995H624.0359074074074V28.719999999999914H632.5659074074074V38.55999999999989L631.2459074074075 37.81999999999988Q631.7459074074075 35.3599999999999 634.0359074074074 33.09999999999985Q636.3359074074075 30.849999999999852 639.6559074074074 29.409999999999854Q642.9759074074075 27.979999999999848 646.5059074074074 27.979999999999848Q652.3259074074075 27.979999999999848 656.8359074074075 30.849999999999852T663.9659074074075 38.71999999999986Q666.5959074074075 43.71999999999986 666.5959074074075 50.199999999999875Q666.5959074074075 56.59999999999985 664.0059074074074 61.63999999999987Q661.4259074074075 66.6799999999999 656.9159074074075 69.58999999999986T646.7459074074075 72.49999999999989Q642.9759074074075 72.49999999999989 639.4459074074075 70.9899999999999Q635.9259074074075 69.46999999999991 633.4659074074075 67.08999999999992T630.4259074074074 62.1699999999999L632.5659074074074 61.019999999999925ZM645.3559074074075 64.70999999999992Q649.1259074074075 64.70999999999992 652.0759074074075 62.82999999999993Q655.0259074074074 60.93999999999994 656.7559074074074 57.65999999999991Q658.4759074074075 54.37999999999994 658.4759074074075 50.19999999999993T656.7959074074075 42.779999999999916T652.1559074074075 37.64999999999992Q649.2059074074075 35.769999999999925 645.3559074074075 35.769999999999925Q641.4959074074075 35.769999999999925 638.5459074074075 37.6099999999999Q635.5959074074075 39.45999999999992 633.8759074074075 42.739999999999895T632.1559074074074 50.199999999999875T633.8759074074075 57.659999999999854T638.5459074074075 62.82999999999987Q641.4959074074075 64.70999999999987 645.3559074074075 64.70999999999987M712.5959074074075 28.709999999999866L681.0259074074075 58.30999999999989L680.6159074074075 49.11999999999989L701.1959074074075 28.709999999999866ZM681.7659074074076 71.75999999999988H673.3159074074075V11.07999999999987H681.7659074074076ZM713.1659074074075 71.75999999999988H702.3459074074075L686.1059074074075 52.80999999999989L692.0959074074075 47.31999999999988ZM750.5559074074075 71.75999999999988H742.9359074074075V43.709999999999866Q742.9359074074075 40.09999999999985 740.3559074074075 37.84999999999985Q737.7659074074076 35.58999999999986 733.8359074074075 35.58999999999986Q730.2259074074075 35.58999999999986 727.3159074074075 37.06999999999988T722.0259074074075 41.57999999999987L716.5259074074075 36.08999999999986Q720.3859074074076 31.899999999999864 724.8559074074075 29.849999999999852T734.4859074074075 27.79999999999984Q739.4059074074075 27.79999999999984 743.0159074074074 29.439999999999827T748.5959074074075 34.23999999999984Q750.5559074074074 37.399999999999864 750.5559074074074 41.909999999999854ZM730.0559074074075 72.57999999999987Q725.8759074074075 72.57999999999987 722.5959074074075 70.93999999999988T717.3959074074075 66.38999999999987Q715.4659074074075 63.46999999999986 715.4659074074075 59.53999999999985Q715.4659074074075 56.08999999999986 716.6959074074075 53.46999999999986T720.3459074074075 49.119999999999834Q722.7659074074076 47.39999999999981 726.4159074074075 46.49999999999983Q730.0559074074075 45.59999999999985 734.8159074074075 45.59999999999985H746.7859074074075L746.0459074074075 52.31999999999988H733.7459074074075Q731.2859074074075 52.31999999999988 729.3659074074075 52.76999999999987Q727.4359074074075 53.21999999999986 726.0859074074075 54.169999999999845Q724.7259074074075 55.10999999999984 724.0759074074075 56.379999999999825Q723.4159074074075 57.64999999999981 723.4159074074075 59.369999999999834Q723.4159074074075 61.179999999999836 724.3159074074075 62.52999999999986Q725.2259074074075 63.87999999999988 726.7759074074074 64.61999999999983Q728.3359074074075 65.35999999999984 730.3859074074074 65.35999999999984Q733.3359074074075 65.35999999999984 736.0059074074074 64.33999999999986Q738.6659074074075 63.30999999999989 740.7659074074074 61.50999999999988Q742.8559074074075 59.699999999999875 743.9959074074075 57.489999999999895L745.9659074074075 62.979999999999905Q744.2459074074075 65.84999999999991 741.7059074074075 67.9799999999999Q739.1659074074075 70.11999999999989 736.2059074074075 71.34999999999991Q733.2559074074076 72.57999999999993 730.0559074074075 72.57999999999993M767.2959074074075 71.75999999999993H758.7659074074076V28.709999999999923H767.2959074074075V42.239999999999895L766.4759074074076 38.95999999999992Q767.3759074074076 35.83999999999992 769.5559074074075 33.2999999999999Q771.7259074074076 30.759999999999877 774.5559074074075 29.279999999999916T780.4159074074075 27.799999999999898Q781.8159074074075 27.799999999999898 783.0859074074076 28.049999999999898T785.0959074074076 28.61999999999989L782.8759074074076 37.80999999999989Q781.8959074074075 37.399999999999864 780.7059074074075 37.1099999999999T778.3659074074076 36.81999999999988Q776.1559074074075 36.81999999999988 774.1459074074075 37.689999999999884Q772.1359074074076 38.5499999999999 770.6159074074076 40.05999999999989Q769.1059074074076 41.57999999999987 768.1959074074075 43.58999999999986Q767.2959074074075 45.59999999999985 767.2959074074075 47.97999999999985ZM808.7059074074076 72.57999999999993Q802.3959074074075 72.57999999999993 797.4359074074076 69.6699999999999Q792.4759074074076 66.74999999999989 789.6059074074076 61.70999999999992T786.7359074074076 50.18999999999994T789.6059074074076 38.66999999999996T797.4359074074076 30.71999999999997Q802.3959074074075 27.799999999999955 808.7059074074076 27.799999999999955Q814.9359074074076 27.799999999999955 819.9059074074075 30.71999999999997Q824.8659074074076 33.629999999999995 827.7359074074076 38.66999999999996T830.6059074074076 50.18999999999994T827.7359074074076 61.70999999999992T819.9059074074075 69.6699999999999Q814.9359074074075 72.57999999999993 808.7059074074076 72.57999999999993M808.7059074074076 64.86999999999995Q812.5659074074076 64.86999999999995 815.5959074074076 62.93999999999994T820.3559074074076 57.68999999999994Q822.0759074074076 54.36999999999995 821.9959074074076 50.18999999999994Q822.0759074074075 45.92999999999995 820.3559074074076 42.60999999999996Q818.6259074074076 39.27999999999997 815.5959074074076 37.39999999999998Q812.5659074074076 35.50999999999999 808.7059074074076 35.50999999999999Q804.8559074074076 35.50999999999999 801.7759074074075 37.44Q798.7059074074076 39.370000000000005 796.9859074074076 42.69Q795.2559074074076 46.00999999999999 795.3459074074076 50.19Q795.2559074074076 54.370000000000005 796.9859074074076 57.69Q798.7059074074076 61.00999999999999 801.7759074074075 62.94Q804.8559074074076 64.87 808.7059074074076 64.87 "></path><path fill="#194d80" fill-rule="evenodd" d="M886.8609074074075 79.67000000000002C886.5209074074074 79.33000000000004 886.5209074074074 78.82 886.5209074074074 78.48000000000002L887.8809074074074 71H860.1709074074074L858.8109074074075 78.99000000000001C858.6409074074074 79.67000000000002 858.1309074074074 80.18 857.2809074074075 80.18H848.9509074074075C847.9309074074075 80.18 847.2509074074076 79.32999999999998 847.4209074074075 78.31L848.7809074074075 70.82999999999998H841.1309074074076C840.1109074074076 70.82999999999998 839.4309074074076 69.97999999999996 839.6009074074076 68.95999999999998L841.1309074074076 60.629999999999995C841.3009074074075 59.94999999999999 841.8109074074075 59.44 842.6609074074075 59.44H850.8209074074075L855.5809074074075 32.24000000000001H847.9309074074076C846.9109074074076 32.24000000000001 846.2309074074076 31.389999999999986 846.4009074074077 30.370000000000005L847.9309074074076 22.04000000000002C848.1009074074076 21.360000000000014 848.6109074074076 20.850000000000023 849.4609074074076 20.850000000000023H857.6209074074076L858.9809074074076 12.860000000000014C859.1509074074077 12.180000000000007 859.6609074074076 11.670000000000016 860.5109074074076 11.670000000000016H868.8409074074075C869.8609074074075 11.670000000000016 870.5409074074075 12.520000000000039 870.3709074074075 13.54000000000002L869.0109074074076 21.02000000000004H896.7209074074075L898.0809074074075 13.03000000000003C898.2509074074075 12.350000000000023 898.7609074074074 11.840000000000032 899.6109074074075 11.840000000000032H907.9409074074075C908.9609074074075 11.840000000000032 909.6409074074076 12.690000000000055 909.4709074074075 13.710000000000036L908.1109074074075 21.190000000000055H915.7609074074074C916.7809074074074 21.190000000000055 917.4609074074075 22.040000000000077 917.2909074074074 23.06000000000006L915.7609074074074 31.390000000000043C915.5909074074075 32.07000000000005 915.0809074074075 32.58000000000004 914.2309074074075 32.58000000000004H906.0709074074075L901.3109074074075 59.78000000000003H908.9609074074075C909.9809074074075 59.78000000000003 910.6609074074075 60.63000000000005 910.4909074074075 61.650000000000034L908.9609074074075 69.98000000000002C908.7909074074075 70.66000000000003 908.2809074074075 71.17000000000002 907.4309074074075 71.17000000000002H899.2709074074075L897.9109074074075 79.16000000000003C897.7409074074076 79.84000000000003 897.2309074074076 80.35000000000002 896.3809074074076 80.35000000000002H888.0509074074075M866.9709074074076 32.410000000000025L862.2109074074076 59.610000000000014H889.9209074074075L894.6809074074075 32.410000000000025Z "></path><rect width="117.542" height="59.89" x="308.1349074074074" y="-383.945" fill="none" rx="0" ry="0" transform="translate(621.73 402.53)"></rect><path fill="#001f3f" d="M955.7059074074074 64.67000000000002H932.1159074074073V62.5Q932.1159074074073 59.89999999999998 933.5559074074074 57.75999999999999Q934.9859074074074 55.610000000000014 937.2059074074074 53.75Q939.4359074074074 51.89999999999998 941.9759074074074 50.18000000000001Q944.5259074074073 48.44999999999999 946.7459074074073 46.81Q948.9759074074074 45.170000000000016 950.4059074074073 43.389999999999986Q951.8359074074073 41.620000000000005 951.8359074074073 39.599999999999966Q951.8359074074073 36.52999999999997 949.7959074074073 34.77999999999997T943.9359074074073 33.02999999999997Q940.4459074074073 33.02999999999997 938.2459074074072 34.589999999999975Q936.0459074074072 36.15999999999997 935.6159074074072 39.129999999999995H931.6459074074072Q931.9659074074073 36.110000000000014 933.6259074074072 33.85000000000002Q935.2959074074072 31.600000000000023 937.9459074074073 30.379999999999995T943.8359074074073 29.159999999999968Q947.6459074074072 29.159999999999968 950.3259074074073 30.539999999999964T954.4059074074073 34.24999999999994Q955.8159074074073 36.57999999999993 955.8159074074073 39.49999999999994Q955.8159074074073 41.93999999999994 954.4859074074072 44.059999999999945Q953.1659074074072 46.17999999999995 951.0459074074072 48.02999999999997Q948.9259074074072 49.889999999999986 946.5659074074072 51.52999999999997T942.0359074074072 54.72999999999996Q939.8559074074072 56.299999999999955 938.4259074074072 57.809999999999945T936.8359074074071 60.85999999999996H955.7059074074072ZM973.0959074074074 65.11000000000001Q966.8959074074073 65.11000000000001 963.8459074074074 60.52000000000004Q960.8059074074074 55.940000000000055 960.8059074074074 47.14000000000004T963.8459074074074 33.76000000000005Q966.8959074074073 29.170000000000073 973.0959074074074 29.170000000000073Q976.7059074074074 29.230000000000075 979.0859074074074 30.740000000000066Q981.4759074074074 32.25000000000006 982.8559074074074 34.79000000000008Q984.2259074074074 37.3300000000001 984.8159074074074 40.510000000000105Q985.3959074074074 43.69000000000011 985.3959074074074 47.1400000000001Q985.3959074074074 55.94000000000011 982.3459074074075 60.520000000000095Q979.2959074074075 65.11000000000007 973.0959074074075 65.11000000000007M973.0959074074075 61.240000000000066Q975.8059074074075 61.180000000000064 977.4459074074075 59.91000000000008T979.9659074074075 56.57000000000011Q980.8359074074075 54.510000000000105 981.1259074074075 52.040000000000134Q981.4159074074074 49.580000000000155 981.4159074074074 47.14000000000016Q981.4159074074074 40.090000000000146 979.4559074074074 36.570000000000164Q977.4959074074073 33.04000000000019 973.0959074074074 33.04000000000019Q968.7559074074073 33.04000000000019 966.7659074074073 36.570000000000164Q964.7759074074073 40.090000000000146 964.7759074074073 47.14000000000016T966.7659074074073 57.71000000000015Q968.7559074074073 61.24000000000012 973.0959074074074 61.24000000000012M1014.0059074074073 64.67000000000013H990.4159074074073V62.500000000000114Q990.4159074074073 59.90000000000009 991.8559074074074 57.760000000000105Q993.2859074074073 55.61000000000013 995.5059074074073 53.750000000000114Q997.7359074074074 51.90000000000009 1000.2759074074073 50.18000000000012Q1002.8259074074073 48.4500000000001 1005.0459074074073 46.810000000000116Q1007.2759074074073 45.17000000000013 1008.7059074074073 43.3900000000001Q1010.1359074074072 41.62000000000012 1010.1359074074072 39.60000000000008Q1010.1359074074072 36.530000000000086 1008.0959074074073 34.780000000000086T1002.2359074074072 33.030000000000086Q998.7459074074072 33.030000000000086 996.5459074074072 34.59000000000009Q994.3459074074071 36.16000000000008 993.9159074074072 39.13000000000011H989.9459074074072Q990.2659074074072 36.11000000000013 991.9259074074072 33.850000000000136Q993.5959074074071 31.600000000000136 996.2459074074072 30.38000000000011T1002.1359074074072 29.160000000000082Q1005.9459074074072 29.160000000000082 1008.6259074074072 30.540000000000077T1012.7059074074073 34.25000000000006Q1014.1159074074072 36.58000000000004 1014.1159074074072 39.50000000000006Q1014.1159074074072 41.940000000000055 1012.7859074074072 44.06000000000006Q1011.4659074074071 46.180000000000064 1009.3459074074071 48.030000000000086Q1007.2259074074071 49.8900000000001 1004.8659074074071 51.530000000000086T1000.3359074074071 54.730000000000075Q998.1559074074072 56.30000000000007 996.7259074074071 57.81000000000006T995.1359074074071 60.86000000000007H1014.0059074074071ZM1039.1759074074073 64.68000000000012H1035.2059074074073V55.73000000000013H1018.4559074074073V51.86000000000013L1033.1959074074073 29.600000000000136H1039.1759074074073V52.17000000000013H1043.8959074074073V55.73000000000013H1039.1759074074073ZM1035.2059074074073 32.99000000000012L1022.1659074074073 52.17000000000013H1035.2059074074073Z "></path></g><rect width="560" height="93" x="470" y="0" id="space-saver" fill="transparent" stroke="transparent"></rect></g></svg>